<?xml version="1.0" encoding="UTF-8" standalone="no"?>
<!-- Created with Inkscape (http://www.inkscape.org/) -->

<svg
   xmlns:dc="http://purl.org/dc/elements/1.1/"
   xmlns:cc="http://creativecommons.org/ns#"
   xmlns:rdf="http://www.w3.org/1999/02/22-rdf-syntax-ns#"
   xmlns:svg="http://www.w3.org/2000/svg"
   xmlns="http://www.w3.org/2000/svg"
   xmlns:sodipodi="http://sodipodi.sourceforge.net/DTD/sodipodi-0.dtd"
   xmlns:inkscape="http://www.inkscape.org/namespaces/inkscape"
   width="39.55611mm"
   height="11.080547mm"
   viewBox="0 0 39.55611 11.080547"
   version="1.1"
   id="svg1470"
   inkscape:version="0.92.3 (2405546, 2018-03-11)"
   sodipodi:docname="ohsome_narrow.svg">
  <defs
     id="defs1464" />
  <sodipodi:namedview
     id="base"
     pagecolor="#ffffff"
     bordercolor="#666666"
     borderopacity="1.0"
     inkscape:pageopacity="0.0"
     inkscape:pageshadow="2"
     inkscape:zoom="9.4713559"
     inkscape:cx="28.507006"
     inkscape:cy="20.939617"
     inkscape:document-units="mm"
     inkscape:current-layer="layer1"
     showgrid="false"
     fit-margin-top="0"
     fit-margin-left="0"
     fit-margin-right="0"
     fit-margin-bottom="0"
     inkscape:window-width="3840"
     inkscape:window-height="2035"
     inkscape:window-x="-13"
     inkscape:window-y="-13"
     inkscape:window-maximized="1" />
  <metadata
     id="metadata1467">
    <rdf:RDF>
      <cc:Work
         rdf:about="">
        <dc:format>image/svg+xml</dc:format>
        <dc:type
           rdf:resource="http://purl.org/dc/dcmitype/StillImage" />
        <dc:title />
      </cc:Work>
    </rdf:RDF>
  </metadata>
  <g
     inkscape:label="Ebene 1"
     inkscape:groupmode="layer"
     id="layer1"
     transform="translate(-64.888612,-147.07282)"
     style="display:inline">
    <g
       transform="translate(45.357143,-10.782204)"
       id="g1443">
      <g
         inkscape:label="Ebene 1"
         id="layer1-2"
         transform="translate(19.465773,-131.34673)">
        <g
           id="g5107"
           transform="translate(0.06569612,-0.13925487)">
          <path
             inkscape:connector-curvature="0"
             d="m 2.9108275,295.91618 q 0.3819171,0 0.6812576,-0.13419 0.3096624,-0.14451 0.5264262,-0.38191 0.2167637,-0.23741 0.3303067,-0.54707 0.1135429,-0.31999 0.1135429,-0.67094 v -0.0206 q 0,-0.36128 -0.123865,-0.68126 -0.123865,-0.31999 -0.3509509,-0.55739 -0.2167637,-0.23741 -0.5264262,-0.3716 -0.2993404,-0.14451 -0.6709354,-0.14451 -0.371595,0 -0.6812576,0.14451 -0.2993403,0.13419 -0.5161041,0.3716 -0.2167638,0.22708 -0.3303067,0.54707 -0.1135429,0.31998 -0.1135429,0.67093 v 0.0206 q 0,0.36127 0.123865,0.68125 0.1238651,0.30967 0.3406288,0.5574 0.2270858,0.2374 0.5264262,0.38191 0.3096625,0.13419 0.6709354,0.13419 z M 2.8901829,297 q -0.6193251,0 -1.1560734,-0.21677 -0.5264257,-0.22708 -0.9186649,-0.609 Q 0.43352751,295.79231 0.21676375,295.27621 0,294.76011 0,294.18207 v -0.0206 q 0,-0.58836 0.21676375,-1.10447 0.22708584,-0.5161 0.60900293,-0.89802 0.39223912,-0.39224 0.91866542,-0.61932 0.5367484,-0.22709 1.1663954,-0.22709 0.6296471,0 1.1560734,0.22709 0.5367483,0.21676 0.9186654,0.609 0.3922392,0.38192 0.6090029,0.89802 0.2167638,0.50578 0.2167638,1.09414 v 0.0206 q 0,0.57803 -0.2270858,1.09414 -0.2167638,0.5161 -0.6090029,0.90834 -0.3819171,0.38192 -0.9186655,0.609 Q 3.5198304,297 2.8901829,297 Z"
             style="font-style:normal;font-variant:normal;font-weight:normal;font-stretch:normal;font-size:9.87777805px;line-height:0.33072916px;font-family:'Gotham Medium';-inkscape-font-specification:'Gotham Medium, ';letter-spacing:1.85208333px;word-spacing:0px;fill:#ca2334;fill-opacity:1;stroke:none;stroke-width:0.27648437px;stroke-linecap:butt;stroke-linejoin:miter;stroke-opacity:1"
             id="path4585" />
          <path
             inkscape:connector-curvature="0"
             d="m 6.8397896,289.34101 h 1.2489725 v 2.93147 q 0.134187,-0.19612 0.289018,-0.36127 0.165154,-0.17547 0.371595,-0.30966 0.216764,-0.13419 0.464493,-0.20644 0.258053,-0.0826 0.578037,-0.0826 0.9289879,0 1.4347699,0.56772 0.505782,0.56771 0.505782,1.52766 v 3.46822 h -1.248972 v -3.09662 q 0,-0.63997 -0.309662,-0.9806 -0.2993409,-0.35095 -0.8567339,-0.35095 -0.54707,0 -0.887699,0.36127 -0.340628,0.35095 -0.340628,0.99092 v 3.07598 H 6.8397896 Z"
             style="font-style:normal;font-variant:normal;font-weight:normal;font-stretch:normal;font-size:9.87777805px;line-height:0.33072916px;font-family:'Gotham Medium';-inkscape-font-specification:'Gotham Medium, ';letter-spacing:1.85208333px;word-spacing:0px;fill:#505050;fill-opacity:1;stroke:none;stroke-width:0.27648437px;stroke-linecap:butt;stroke-linejoin:miter;stroke-opacity:1"
             id="path4587" />
          <path
             inkscape:connector-curvature="0"
             d="m 15.07306,296.97935 q -0.588359,0 -1.197362,-0.20644 -0.598681,-0.20644 -1.114785,-0.609 l 0.557392,-0.84641 q 0.44385,0.33031 0.898022,0.50578 0.464494,0.16515 0.887699,0.16515 0.402561,0 0.619325,-0.15483 0.227086,-0.16515 0.227086,-0.43352 v -0.0206 q 0,-0.15483 -0.103223,-0.26837 -0.0929,-0.11355 -0.268374,-0.19612 -0.165154,-0.0826 -0.39224,-0.15483 -0.216763,-0.0723 -0.454171,-0.14451 -0.299341,-0.0826 -0.609003,-0.19612 -0.299341,-0.11355 -0.54707,-0.28902 -0.237408,-0.1858 -0.39224,-0.45417 -0.154829,-0.26838 -0.154829,-0.66062 v -0.0206 q 0,-0.38192 0.144509,-0.69158 0.154832,-0.30966 0.412883,-0.52643 0.268375,-0.21676 0.619326,-0.3303 0.361272,-0.11355 0.763834,-0.11355 0.516104,0 1.04253,0.16516 0.526427,0.16515 0.959954,0.45417 l -0.49546,0.8877 q -0.392239,-0.23741 -0.794801,-0.3716 -0.402561,-0.14451 -0.74319,-0.14451 -0.361272,0 -0.567714,0.15484 -0.196119,0.15483 -0.196119,0.39223 v 0.0207 q 0,0.14451 0.103223,0.25805 0.103223,0.10322 0.268374,0.19612 0.175475,0.0826 0.392238,0.16515 0.227087,0.0723 0.464494,0.14451 0.299341,0.0929 0.598682,0.21677 0.29934,0.12386 0.536748,0.30966 0.24773,0.17547 0.402561,0.43353 0.154831,0.25805 0.154831,0.62964 v 0.0206 q 0,0.43353 -0.154831,0.75351 -0.154831,0.31999 -0.433527,0.53675 -0.268375,0.20644 -0.63997,0.31998 -0.371595,0.10322 -0.7948,0.10322 z"
             style="font-style:normal;font-variant:normal;font-weight:normal;font-stretch:normal;font-size:9.87777805px;line-height:0.33072916px;font-family:'Gotham Medium';-inkscape-font-specification:'Gotham Medium, ';letter-spacing:1.85208333px;word-spacing:0px;fill:#ca2334;fill-opacity:1;stroke:none;stroke-width:0.27648437px;stroke-linecap:butt;stroke-linejoin:miter;stroke-opacity:1"
             id="path4589" />
          <path
             inkscape:connector-curvature="0"
             d="m 21.035472,295.91618 q 0.381917,0 0.681258,-0.13419 0.309662,-0.14451 0.526426,-0.38191 0.216764,-0.23741 0.330307,-0.54707 0.113543,-0.31999 0.113543,-0.67094 v -0.0206 q 0,-0.36128 -0.123866,-0.68126 -0.123864,-0.31999 -0.35095,-0.5574 -0.216763,-0.2374 -0.526427,-0.37159 -0.299339,-0.14451 -0.670934,-0.14451 -0.371595,0 -0.681259,0.14451 -0.299339,0.13419 -0.516104,0.37159 -0.216763,0.22709 -0.330306,0.54708 -0.113543,0.31998 -0.113543,0.67093 v 0.0206 q 0,0.36127 0.123865,0.68125 0.123865,0.30967 0.340629,0.5574 0.227085,0.2374 0.526426,0.38191 0.309662,0.13419 0.670935,0.13419 z M 21.014834,297 q -0.619326,0 -1.156073,-0.21677 -0.526432,-0.22708 -0.918672,-0.609 -0.381916,-0.38192 -0.598681,-0.89802 -0.216763,-0.5161 -0.216763,-1.09414 v -0.0206 q 0,-0.58836 0.216763,-1.10447 0.227086,-0.5161 0.609003,-0.89802 0.39224,-0.39224 0.918666,-0.61932 0.536749,-0.22709 1.166395,-0.22709 0.629648,0 1.156073,0.22709 0.536749,0.21676 0.918667,0.609 0.392238,0.38192 0.609003,0.89802 0.216763,0.50578 0.216763,1.09414 v 0.0206 q 0,0.57803 -0.227086,1.09414 -0.216764,0.5161 -0.609003,0.90834 -0.381917,0.38192 -0.918665,0.609 Q 21.644475,297 21.014829,297 Z"
             style="font-style:normal;font-variant:normal;font-weight:normal;font-stretch:normal;font-size:9.87777805px;line-height:0.33072916px;font-family:'Gotham Medium';-inkscape-font-specification:'Gotham Medium, ';letter-spacing:1.85208333px;word-spacing:0px;fill:#505050;fill-opacity:1;stroke:none;stroke-width:0.27648437px;stroke-linecap:butt;stroke-linejoin:miter;stroke-opacity:1"
             id="path4591" />
          <path
             inkscape:connector-curvature="0"
             d="m 24.964434,291.42607 h 1.248972 v 0.82577 q 0.134187,-0.1858 0.289018,-0.35095 0.154831,-0.16515 0.35095,-0.29934 0.206443,-0.13419 0.454172,-0.20644 0.258053,-0.0826 0.567715,-0.0826 0.588359,0 0.99092,0.26837 0.412883,0.25806 0.629647,0.69158 0.330306,-0.43352 0.774157,-0.69158 0.454171,-0.26837 1.073496,-0.26837 0.898021,0 1.403803,0.54707 0.505783,0.53675 0.505783,1.53799 v 3.47854 h -1.248973 v -3.09662 q 0,-0.65029 -0.289018,-0.99092 -0.289018,-0.34063 -0.815445,-0.34063 -0.516104,0 -0.846411,0.35095 -0.319984,0.34063 -0.319984,1.00124 v 3.07598 h -1.248972 v -3.10694 q 0,-0.63997 -0.289019,-0.9806 -0.289017,-0.34063 -0.815444,-0.34063 -0.526427,0 -0.846411,0.36127 -0.319984,0.36128 -0.319984,1.00124 v 3.06566 h -1.248972 z"
             style="font-style:normal;font-variant:normal;font-weight:normal;font-stretch:normal;font-size:9.87777805px;line-height:0.33072916px;font-family:'Gotham Medium';-inkscape-font-specification:'Gotham Medium, ';letter-spacing:1.85208333px;word-spacing:0px;fill:#ca2334;fill-opacity:1;stroke:none;stroke-width:0.27648437px;stroke-linecap:butt;stroke-linejoin:miter;stroke-opacity:1"
             id="path4593" />
          <path
             inkscape:connector-curvature="0"
             d="m 38.31746,293.76919 q -0.03096,-0.29934 -0.134187,-0.5574 -0.103224,-0.26837 -0.278697,-0.45417 -0.175476,-0.19612 -0.423205,-0.30966 -0.237408,-0.11354 -0.547071,-0.11354 -0.578037,0 -0.959954,0.40256 -0.371595,0.39224 -0.454171,1.03221 z M 37.078809,297 q -0.588359,0 -1.104463,-0.20644 -0.505782,-0.20644 -0.887699,-0.57804 -0.371595,-0.37159 -0.588359,-0.8877 -0.216764,-0.52643 -0.216764,-1.15607 v -0.0206 q 0,-0.58836 0.19612,-1.10446 0.19612,-0.5161 0.547071,-0.89802 0.361273,-0.39224 0.84641,-0.609 0.485138,-0.22709 1.073497,-0.22709 0.650291,0 1.135429,0.23741 0.49546,0.23741 0.815445,0.63997 0.330306,0.40256 0.49546,0.93931 0.165153,0.52642 0.165153,1.11478 0,0.0826 -0.01035,0.17548 0,0.0826 -0.01035,0.17547 H 35.53044 q 0.103223,0.67094 0.526426,1.03221 0.433527,0.35095 1.04253,0.35095 0.464494,0 0.805123,-0.16515 0.340628,-0.16515 0.670935,-0.48514 l 0.732868,0.65029 q -0.392239,0.4645 -0.939309,0.74319 Q 37.832274,297 37.078762,297 Z"
             style="font-style:normal;font-variant:normal;font-weight:normal;font-stretch:normal;font-size:9.87777805px;line-height:0.33072916px;font-family:'Gotham Medium';-inkscape-font-specification:'Gotham Medium, ';letter-spacing:1.85208333px;word-spacing:0px;fill:#505050;fill-opacity:1;stroke:none;stroke-width:0.27648437px;stroke-linecap:butt;stroke-linejoin:miter;stroke-opacity:1"
             id="path4595" />
        </g>
      </g>
      <g
         aria-label="OSM History Analyzer"
         transform="scale(0.90367665,1.1065905)"
         style="font-style:normal;font-variant:normal;font-weight:normal;font-stretch:normal;font-size:3.1879704px;line-height:5.9774437px;font-family:Helvetica;-inkscape-font-specification:'Helvetica, Normal';font-variant-ligatures:normal;font-variant-caps:normal;font-variant-numeric:normal;font-feature-settings:normal;text-align:center;letter-spacing:0px;word-spacing:0px;writing-mode:lr-tb;text-anchor:middle;fill:#000000;fill-opacity:1;stroke:none;stroke-width:0.26458332px;stroke-linecap:butt;stroke-linejoin:miter;stroke-opacity:1"
         id="text1431">
        <path
           d="m 32.277533,152.03191 q 0.207219,0 0.379369,-0.0765 0.175338,-0.0797 0.299669,-0.21359 0.127519,-0.13708 0.197654,-0.3188 0.07014,-0.18171 0.07014,-0.38893 v -0.006 q 0,-0.20721 -0.07332,-0.38893 -0.07014,-0.1849 -0.197654,-0.3188 -0.124331,-0.13708 -0.299669,-0.21678 -0.175338,-0.0797 -0.382556,-0.0797 -0.207219,0 -0.382557,0.0797 -0.17215,0.0765 -0.299669,0.2136 -0.124331,0.13389 -0.194466,0.31561 -0.07014,0.18171 -0.07014,0.38893 v 0.006 q 0,0.20722 0.07014,0.39212 0.07332,0.18172 0.197654,0.3188 0.127519,0.1339 0.302857,0.2136 0.175338,0.0797 0.382556,0.0797 z m -0.0064,0.14984 q -0.255038,0 -0.462256,-0.0924 -0.20403,-0.0956 -0.350677,-0.25185 -0.146647,-0.1594 -0.226346,-0.36662 -0.0797,-0.20722 -0.0797,-0.43675 v -0.006 q 0,-0.22953 0.0797,-0.43675 0.08289,-0.2104 0.229534,-0.3698 0.146647,-0.1594 0.353865,-0.25185 0.207218,-0.0956 0.462255,-0.0956 0.25185,0 0.459068,0.0956 0.207218,0.0924 0.353865,0.25185 0.146647,0.15621 0.226346,0.36343 0.0797,0.20721 0.0797,0.43675 0.0032,0.003 0,0.006 0,0.22954 -0.08289,0.43994 -0.0797,0.20722 -0.226346,0.36662 -0.146647,0.1594 -0.357053,0.25504 -0.207218,0.0924 -0.459067,0.0924 z"
           style="font-style:normal;font-variant:normal;font-weight:normal;font-stretch:normal;font-family:'Gotham Light';-inkscape-font-specification:'Gotham Light, ';stroke-width:0.26458332px"
           id="path4527" />
        <path
           d="m 34.715085,152.17537 q -0.267789,0 -0.484571,-0.0893 -0.213594,-0.0893 -0.414436,-0.26779 l 0.108391,-0.12433 q 0.09245,0.0861 0.181714,0.14983 0.09245,0.0606 0.18809,0.10202 0.09564,0.0383 0.200842,0.0606 0.105204,0.0191 0.229534,0.0191 0.124331,0 0.229534,-0.0319 0.105203,-0.0351 0.178527,-0.0925 0.07332,-0.0606 0.114767,-0.14027 0.04144,-0.0829 0.04144,-0.17853 v -0.006 q 0,-0.0893 -0.02869,-0.15939 -0.0255,-0.0701 -0.09883,-0.12752 -0.07014,-0.0574 -0.191278,-0.10202 -0.121143,-0.0478 -0.312421,-0.0861 -0.200842,-0.0414 -0.344301,-0.0956 -0.143458,-0.0574 -0.23591,-0.13071 -0.08926,-0.0765 -0.130706,-0.17534 -0.04144,-0.0988 -0.04144,-0.22634 v -0.006 q 0,-0.12433 0.05419,-0.22953 0.0542,-0.10839 0.149835,-0.18809 0.09564,-0.0797 0.226346,-0.12433 0.130707,-0.0446 0.286917,-0.0446 0.242286,0 0.417624,0.0669 0.178527,0.0669 0.347489,0.20403 l -0.105203,0.13071 q -0.159398,-0.13708 -0.321985,-0.19447 -0.159398,-0.0574 -0.344301,-0.0574 -0.12433,0 -0.226346,0.0351 -0.09883,0.0319 -0.17215,0.0893 -0.07014,0.0574 -0.108391,0.13389 -0.03826,0.0765 -0.03826,0.16259 v 0.006 q 0,0.0893 0.0255,0.16258 0.02869,0.0701 0.09883,0.13071 0.07332,0.0574 0.200842,0.1052 0.127519,0.0478 0.325173,0.0893 0.388933,0.0797 0.561083,0.22634 0.172151,0.14346 0.172151,0.38894 v 0.006 q 0,0.1339 -0.05738,0.24866 -0.05419,0.11158 -0.153022,0.19128 -0.09564,0.0797 -0.232722,0.12433 -0.133895,0.0446 -0.296482,0.0446 z"
           style="font-style:normal;font-variant:normal;font-weight:normal;font-stretch:normal;font-family:'Gotham Light';-inkscape-font-specification:'Gotham Light, ';stroke-width:0.26458332px"
           id="path4529" />
        <path
           d="m 36.00183,149.91191 h 0.156211 l 0.895819,1.31982 0.89582,-1.31982 h 0.15621 v 2.23158 h -0.165774 v -1.93828 l -0.883068,1.28475 h -0.01275 l -0.883067,-1.28475 v 1.93828 H 36.00183 Z"
           style="font-style:normal;font-variant:normal;font-weight:normal;font-stretch:normal;font-family:'Gotham Light';-inkscape-font-specification:'Gotham Light, ';stroke-width:0.26458332px"
           id="path4531" />
        <path
           d="m 39.72528,149.91191 h 0.165774 v 1.03291 h 1.428211 v -1.03291 h 0.165774 v 2.23158 h -0.165774 v -1.04565 h -1.428211 v 1.04565 H 39.72528 Z"
           style="font-style:normal;font-variant:normal;font-weight:normal;font-stretch:normal;font-family:'Gotham Light';-inkscape-font-specification:'Gotham Light, ';stroke-width:0.26458332px"
           id="path4533" />
        <path
           d="m 42.134638,150.51763 h 0.156211 v 1.62586 h -0.156211 z m -0.01913,-0.6376 h 0.194466 v 0.2136 h -0.194466 z"
           style="font-style:normal;font-variant:normal;font-weight:normal;font-stretch:normal;font-family:'Gotham Light';-inkscape-font-specification:'Gotham Light, ';stroke-width:0.26458332px"
           id="path4535" />
        <path
           d="m 43.429103,152.17537 q -0.178526,0 -0.357052,-0.0638 -0.178527,-0.0669 -0.309233,-0.17215 l 0.09245,-0.12433 q 0.133895,0.10202 0.280541,0.1594 0.146647,0.0542 0.302857,0.0542 0.165775,0 0.277354,-0.0829 0.114767,-0.0829 0.114767,-0.22635 v -0.006 q 0,-0.0701 -0.03507,-0.12115 -0.03507,-0.051 -0.09564,-0.0893 -0.06057,-0.0383 -0.137083,-0.0638 -0.07651,-0.0255 -0.162586,-0.051 -0.09883,-0.0287 -0.200842,-0.0606 -0.09883,-0.0319 -0.178527,-0.0797 -0.0797,-0.051 -0.130707,-0.12433 -0.04782,-0.0733 -0.04782,-0.18171 v -0.006 q 0,-0.0988 0.03826,-0.17852 0.04144,-0.0829 0.111579,-0.14346 0.07014,-0.0606 0.168962,-0.0925 0.09883,-0.0351 0.216782,-0.0351 0.146647,0 0.299669,0.0478 0.156211,0.0478 0.277354,0.13071 l -0.08289,0.1307 q -0.111579,-0.0733 -0.242285,-0.11795 -0.127519,-0.0446 -0.258226,-0.0446 -0.168962,0 -0.270977,0.0829 -0.09883,0.0797 -0.09883,0.20085 v 0.006 q 0,0.0669 0.03826,0.11796 0.03826,0.0478 0.09883,0.0829 0.06376,0.0351 0.146647,0.0638 0.08289,0.0255 0.168962,0.051 0.09883,0.0287 0.194466,0.0638 0.09564,0.0319 0.172151,0.0861 0.07651,0.051 0.121143,0.12434 0.04782,0.0733 0.04782,0.18171 v 0.006 q 0,0.10839 -0.04463,0.19765 -0.04144,0.0861 -0.117955,0.14983 -0.07651,0.0606 -0.178527,0.0956 -0.102015,0.0319 -0.21997,0.0319 z"
           style="font-style:normal;font-variant:normal;font-weight:normal;font-stretch:normal;font-family:'Gotham Light';-inkscape-font-specification:'Gotham Light, ';stroke-width:0.26458332px"
           id="path4537" />
        <path
           d="m 45.026576,152.17219 q -0.09564,0 -0.178527,-0.0255 -0.08289,-0.0255 -0.146646,-0.0797 -0.06057,-0.0574 -0.09564,-0.14027 -0.03507,-0.0861 -0.03507,-0.20084 v -1.06478 h -0.23591 v -0.14346 h 0.23591 v -0.51964 h 0.156211 v 0.51964 h 0.570646 v 0.14346 h -0.570646 v 1.04884 q 0,0.17534 0.08926,0.24547 0.09245,0.0701 0.23591,0.0701 0.06057,0 0.114767,-0.0128 0.05419,-0.0128 0.12433,-0.0446 v 0.14664 q -0.06376,0.0287 -0.127518,0.0414 -0.06057,0.0159 -0.137083,0.0159 z"
           style="font-style:normal;font-variant:normal;font-weight:normal;font-stretch:normal;font-family:'Gotham Light';-inkscape-font-specification:'Gotham Light, ';stroke-width:0.26458332px"
           id="path4539" />
        <path
           d="m 46.487911,152.0351 q 0.143459,0 0.264602,-0.0542 0.12433,-0.0574 0.210406,-0.14984 0.08926,-0.0956 0.137082,-0.22316 0.05101,-0.12751 0.05101,-0.27097 v -0.006 q 0,-0.14665 -0.05101,-0.27416 -0.05101,-0.13071 -0.143458,-0.22635 -0.08926,-0.0956 -0.213594,-0.14983 -0.121143,-0.0542 -0.261414,-0.0542 -0.143459,0 -0.267789,0.0574 -0.121143,0.0542 -0.210406,0.14984 -0.08608,0.0925 -0.137083,0.21997 -0.04782,0.12752 -0.04782,0.27098 v 0.006 q 0,0.14665 0.05101,0.27735 0.05101,0.12752 0.140271,0.22316 0.09245,0.0956 0.213594,0.14984 0.12433,0.0542 0.264601,0.0542 z m -0.0064,0.14665 q -0.181714,0 -0.334737,-0.0669 -0.149834,-0.0701 -0.261413,-0.1849 -0.111579,-0.11477 -0.175339,-0.26779 -0.06057,-0.15302 -0.06057,-0.32517 v -0.006 q 0,-0.17215 0.06057,-0.32517 0.06376,-0.15302 0.175339,-0.27098 0.114767,-0.11795 0.267789,-0.1849 0.153023,-0.0701 0.334737,-0.0701 0.181714,0 0.331549,0.0701 0.153023,0.0669 0.264602,0.18171 0.111579,0.11477 0.17215,0.26779 0.06376,0.15302 0.06376,0.32518 v 0.006 q 0,0.17215 -0.06376,0.32517 -0.06057,0.15303 -0.175338,0.27098 -0.111579,0.11796 -0.264602,0.18809 -0.153023,0.0669 -0.334737,0.0669 z"
           style="font-style:normal;font-variant:normal;font-weight:normal;font-stretch:normal;font-family:'Gotham Light';-inkscape-font-specification:'Gotham Light, ';stroke-width:0.26458332px"
           id="path4541" />
        <path
           d="m 47.803347,150.51763 h 0.156211 v 0.46225 q 0.04782,-0.10839 0.121143,-0.20084 0.07332,-0.0925 0.165774,-0.15621 0.09245,-0.0669 0.200842,-0.0988 0.111579,-0.0351 0.232722,-0.0319 v 0.17216 h -0.01594 q -0.14027,0 -0.267789,0.0542 -0.127519,0.051 -0.226346,0.15621 -0.09564,0.10202 -0.153023,0.25504 -0.05738,0.14983 -0.05738,0.34749 v 0.66628 h -0.156211 z"
           style="font-style:normal;font-variant:normal;font-weight:normal;font-stretch:normal;font-family:'Gotham Light';-inkscape-font-specification:'Gotham Light, ';stroke-width:0.26458332px"
           id="path4543" />
        <path
           d="m 49.277435,152.66313 q -0.09245,0 -0.165774,-0.0191 -0.07332,-0.0159 -0.156211,-0.051 l 0.0542,-0.13709 q 0.06376,0.0319 0.124331,0.0446 0.06057,0.0159 0.153022,0.0159 0.06376,0 0.117955,-0.0191 0.0542,-0.0191 0.102015,-0.0669 0.04782,-0.0446 0.09245,-0.11795 0.04463,-0.0733 0.08926,-0.17853 l -0.781053,-1.6163 h 0.181714 l 0.67585,1.45371 0.586587,-1.45371 h 0.17215 l -0.704542,1.68325 q -0.108391,0.25503 -0.239097,0.35705 -0.127519,0.1052 -0.302858,0.1052 z"
           style="font-style:normal;font-variant:normal;font-weight:normal;font-stretch:normal;font-family:'Gotham Light';-inkscape-font-specification:'Gotham Light, ';stroke-width:0.26458332px"
           id="path4545" />
        <path
           d="m 53.459006,151.36882 -0.586586,-1.29113 -0.589775,1.29113 z m -0.663098,-1.47285 h 0.159399 l 1.039278,2.24752 h -0.181714 l -0.283729,-0.62484 H 52.21251 l -0.28373,0.62484 h -0.17215 z"
           style="font-style:normal;font-variant:normal;font-weight:normal;font-stretch:normal;font-family:'Gotham Light';-inkscape-font-specification:'Gotham Light, ';stroke-width:0.26458332px"
           id="path4547" />
        <path
           d="m 54.428349,150.51763 h 0.156211 v 0.30286 q 0.08289,-0.14346 0.223158,-0.24229 0.14027,-0.0988 0.363428,-0.0988 0.153023,0 0.274166,0.051 0.121143,0.0478 0.20403,0.13708 0.08608,0.0893 0.127519,0.2136 0.04463,0.12114 0.04463,0.26779 v 0.99464 h -0.15621 v -0.96595 q 0,-0.25185 -0.133895,-0.40169 -0.133895,-0.15302 -0.382556,-0.15302 -0.121143,0 -0.223158,0.0446 -0.102015,0.0414 -0.178527,0.11796 -0.07651,0.0765 -0.121143,0.1849 -0.04144,0.1052 -0.04144,0.23272 v 0.94045 h -0.156211 z"
           style="font-style:normal;font-variant:normal;font-weight:normal;font-stretch:normal;font-family:'Gotham Light';-inkscape-font-specification:'Gotham Light, ';stroke-width:0.26458332px"
           id="path4549" />
        <path
           d="m 56.887171,152.0351 q 0.12433,0 0.235909,-0.0351 0.111579,-0.0383 0.194467,-0.10201 0.08608,-0.0669 0.133894,-0.1594 0.05101,-0.0924 0.05101,-0.20403 v -0.1849 q -0.102015,-0.0255 -0.239098,-0.0478 -0.137083,-0.0255 -0.312421,-0.0255 -0.258226,0 -0.398496,0.1052 -0.137083,0.10201 -0.137083,0.27416 v 0.006 q 0,0.0893 0.03826,0.1594 0.03825,0.067 0.102015,0.11477 0.06695,0.0478 0.153022,0.0733 0.08608,0.0255 0.178527,0.0255 z m -0.0096,0.14665 q -0.114767,0 -0.226346,-0.0319 -0.111579,-0.0319 -0.200842,-0.0956 -0.08926,-0.0638 -0.146647,-0.1594 -0.05419,-0.0956 -0.05419,-0.22316 v -0.006 q 0,-0.12752 0.05101,-0.22635 0.0542,-0.0988 0.146647,-0.16577 0.09245,-0.0669 0.223158,-0.10202 0.130706,-0.0351 0.290105,-0.0351 0.17215,0 0.296481,0.0191 0.124331,0.0191 0.242286,0.051 v -0.0701 q 0,-0.24867 -0.143459,-0.373 -0.14027,-0.12433 -0.39212,-0.12433 -0.149835,0 -0.274166,0.0383 -0.12433,0.0351 -0.235909,0.0924 l -0.05738,-0.13708 q 0.133895,-0.0638 0.270978,-0.10202 0.137082,-0.0383 0.306045,-0.0383 0.334737,0 0.513263,0.17853 0.165774,0.16578 0.165774,0.45907 v 1.01377 h -0.153022 v -0.27097 q -0.04144,0.0574 -0.102015,0.11476 -0.05738,0.0542 -0.133895,0.0988 -0.07651,0.0414 -0.175338,0.067 -0.09564,0.0287 -0.210406,0.0287 z"
           style="font-style:normal;font-variant:normal;font-weight:normal;font-stretch:normal;font-family:'Gotham Light';-inkscape-font-specification:'Gotham Light, ';stroke-width:0.26458332px"
           id="path4551" />
        <path
           d="m 58.23638,149.81628 h 0.156211 v 2.32721 H 58.23638 Z"
           style="font-style:normal;font-variant:normal;font-weight:normal;font-stretch:normal;font-family:'Gotham Light';-inkscape-font-specification:'Gotham Light, ';stroke-width:0.26458332px"
           id="path4553" />
        <path
           d="m 59.202484,152.66313 q -0.09245,0 -0.165774,-0.0191 -0.07332,-0.0159 -0.156211,-0.051 l 0.0542,-0.13709 q 0.06376,0.0319 0.124331,0.0446 0.06057,0.0159 0.153022,0.0159 0.06376,0 0.117955,-0.0191 0.0542,-0.0191 0.102015,-0.0669 0.04782,-0.0446 0.09245,-0.11795 0.04463,-0.0733 0.08926,-0.17853 l -0.781052,-1.6163 h 0.181714 l 0.67585,1.45371 0.586586,-1.45371 h 0.172151 l -0.704542,1.68325 q -0.108391,0.25503 -0.239097,0.35705 -0.127519,0.1052 -0.302858,0.1052 z"
           style="font-style:normal;font-variant:normal;font-weight:normal;font-stretch:normal;font-family:'Gotham Light';-inkscape-font-specification:'Gotham Light, ';stroke-width:0.26458332px"
           id="path4555" />
        <path
           d="m 60.767429,152.05423 1.173173,-1.39633 h -1.128541 v -0.14027 h 1.361263 v 0.0893 l -1.173173,1.39633 h 1.173173 v 0.14027 h -1.405895 z"
           style="font-style:normal;font-variant:normal;font-weight:normal;font-stretch:normal;font-family:'Gotham Light';-inkscape-font-specification:'Gotham Light, ';stroke-width:0.26458332px"
           id="path4557" />
        <path
           d="m 63.884268,151.25405 q -0.0096,-0.12433 -0.05101,-0.23591 -0.03826,-0.11477 -0.111579,-0.20084 -0.07014,-0.0893 -0.175339,-0.14027 -0.105203,-0.0542 -0.245473,-0.0542 -0.121143,0 -0.226346,0.0478 -0.105203,0.0478 -0.184902,0.1339 -0.07651,0.0829 -0.127519,0.20084 -0.05101,0.11477 -0.06057,0.24866 z m -0.551519,0.9277 q -0.159398,0 -0.306045,-0.0606 -0.143458,-0.0606 -0.255037,-0.17215 -0.108391,-0.11158 -0.172151,-0.26779 -0.06376,-0.15621 -0.06376,-0.34749 v -0.006 q 0,-0.17534 0.05738,-0.32836 0.06057,-0.15621 0.162587,-0.27098 0.105203,-0.11476 0.245474,-0.18171 0.14027,-0.067 0.306045,-0.067 0.17215,0 0.309233,0.067 0.137083,0.0638 0.232722,0.17853 0.09883,0.11476 0.149834,0.27097 0.0542,0.15303 0.0542,0.33474 0,0.0223 0,0.0351 0,0.01 -0.0032,0.0287 h -1.348512 q 0.0096,0.15302 0.06695,0.27098 0.05738,0.11795 0.143458,0.20084 0.08608,0.0829 0.194467,0.12752 0.111578,0.0414 0.232721,0.0414 0.191279,0 0.321985,-0.0733 0.133895,-0.0733 0.23591,-0.18171 l 0.108391,0.0956 q -0.124331,0.1339 -0.283729,0.21997 -0.156211,0.0861 -0.388933,0.0861 z"
           style="font-style:normal;font-variant:normal;font-weight:normal;font-stretch:normal;font-family:'Gotham Light';-inkscape-font-specification:'Gotham Light, ';stroke-width:0.26458332px"
           id="path4559" />
        <path
           d="m 64.509061,150.51763 h 0.15621 v 0.46225 q 0.04782,-0.10839 0.121143,-0.20084 0.07332,-0.0925 0.165775,-0.15621 0.09245,-0.0669 0.200842,-0.0988 0.111579,-0.0351 0.232722,-0.0319 v 0.17216 h -0.01594 q -0.140271,0 -0.26779,0.0542 -0.127519,0.051 -0.226346,0.15621 -0.09564,0.10202 -0.153022,0.25504 -0.05738,0.14983 -0.05738,0.34749 v 0.66628 h -0.15621 z"
           style="font-style:normal;font-variant:normal;font-weight:normal;font-stretch:normal;font-family:'Gotham Light';-inkscape-font-specification:'Gotham Light, ';stroke-width:0.26458332px"
           id="path4561" />
      </g>
    </g>
  </g>
</svg>
